<?xml version="1.0" standalone="no"?>
 <!DOCTYPE svg PUBLIC "-//W3C//DTD SVG 1.1//EN" 
 "http://www.w3.org/Graphics/SVG/1.1/DTD/svg11.dtd"> 
<svg
  xmlns:svg="http://www.w3.org/2000/svg"
  xmlns="http://www.w3.org/2000/svg"
  xmlns:xlink="http://www.w3.org/1999/xlink"
  version="1.1"
  width="297.0022mm" height="210.0072mm" viewBox="0.0000 0.0000 297.0022 210.0072">
<title>SVG Image created as Flight-F_Cu.svg date 2025/02/20 21:08:19 </title>
  <desc>Image generated by PCBNEW </desc>
<g style="fill:#000000; fill-opacity:1.0000;stroke:#000000; stroke-opacity:1.0000;
stroke-linecap:round; stroke-linejoin:round;"
 transform="translate(0 0) scale(1 1)">
</g>
<g style="fill:none; 
stroke:#000000; stroke-width:0.2000; stroke-opacity:1; 
stroke-linecap:round; stroke-linejoin:round;">
<path d="M159.0000 85.0000
L158.0000 85.0000
" />
<path d="M169.0000 91.5000
L159.0000 85.0000
" />
<path d="M169.0000 92.5000
L160.5000 87.0000
" />
<path d="M176.0000 97.5000
L175.0000 97.5000
" />
<path d="M176.0000 96.5000
L176.0000 97.5000
" />
<path d="M176.0000 91.5000
L176.0000 96.5000
" />
<path d="M174.0000 91.5000
L176.0000 91.5000
" />
<path d="M174.0000 91.5000
L169.0000 91.5000
" />
<path d="M174.0000 92.5000
L169.0000 92.5000
" />
<path d="M174.0000 96.5000
L174.0000 92.5000
" />
<path d="M169.0000 99.5000
L172.0000 99.5000
" />
<path d="M163.2250 96.5000
L159.0000 102.5000
" />
<path d="M160.0000 91.0000
L158.0000 91.0000
" />
<path d="M148.0000 87.0000
L153.0000 87.0000
" />
<path d="M150.5000 100.0000
L150.5000 97.5000
" />
<path d="M157.5000 100.5000
L156.0000 98.5000
" />
<path d="M170.0000 98.5000
L174.0000 98.5000
" />
<path d="M169.0000 93.5000
L170.0000 93.5000
" />
<path d="M156.5000 89.5000
L156.5000 89.0000
" />
<path d="M160.0000 91.5000
L160.0000 91.0000
" />
<path d="M156.0000 88.0000
L156.5000 88.0000
" />
<path d="M149.5000 102.5000
L148.0000 101.0000
" />
<path d="M148.0000 100.0000
L148.0000 87.0000
" />
<path d="M169.0000 94.0000
L160.0000 89.5000
" />
<path d="M160.5000 97.5000
L160.5000 95.0000
" />
<path d="M157.5000 97.5000
L160.5000 97.5000
" />
<path d="M150.0000 100.0000
L148.0000 100.0000
" />
<path d="M158.0000 93.5000
L158.0000 94.5000
" />
<path d="M170.0000 93.5000
L170.0000 98.5000
" />
<path d="M160.0000 89.5000
L158.5000 89.5000
" />
<path d="M169.0000 94.0000
L169.0000 99.5000
" />
<path d="M160.5000 95.0000
L156.5000 95.0000
" />
<path d="M156.5000 88.0000
L156.5000 87.0000
" />
<path d="M166.0000 94.5000
L165.5000 96.5000
" />
<path d="M150.5000 97.5000
L152.5000 97.5000
" />
<path d="M156.5000 87.0000
L158.0000 87.0000
" />
<path d="M160.5000 87.0000
L158.0000 87.0000
" />
<path d="M158.5000 93.5000
L160.0000 91.5000
" />
<path d="M148.0000 101.0000
L148.0000 100.0000
" />
<path d="M153.5000 85.0000
L153.0000 87.0000
" />
<path d="M175.0000 97.5000
L172.0000 97.5000
" />
<path d="M156.0000 98.5000
L156.0000 88.0000
" />
<path d="M156.5000 95.0000
L156.5000 89.5000
" />
<path d="M158.0000 85.0000
L153.5000 85.0000
" />
<path d="M158.0000 94.5000
L166.0000 94.5000
" />
<path d="M159.0000 102.5000
L149.5000 102.5000
" />
<path d="M156.5000 89.0000
L158.0000 88.5000
" />
</g>
<g style="fill:none; 
stroke:#000000; stroke-width:0.3000; stroke-opacity:1; 
stroke-linecap:round; stroke-linejoin:round;">
<text x="171.5000" y="92.0000"
textLength="7.7000" font-size="7.3333" lengthAdjust="spacingAndGlyphs"
text-anchor="start" opacity="0">)</text>
<g class="stroked-text"><desc>)</desc>
<path style="fill:#000000; fill-opacity:1.0000; stroke:none;fill-rule:evenodd;"
d="M 172.4618,90.1193
172.4618,89.0728
173.4250,89.0728
173.4250,88.1419
174.3868,88.1419
174.3868,85.3048
173.4250,85.3048
173.4250,84.3738
172.4618,84.3738
172.4618,83.3274
174.4728,83.3274
174.4728,84.2731
175.4360,84.2731
175.4360,85.2188
176.3978,85.2188
176.3978,88.2279
175.4360,88.2279
175.4360,89.1588
174.4728,89.1588
174.4728,90.1193
Z" /> 
</g></g>
<g style="fill:none; 
stroke:#000000; stroke-width:0.3000; stroke-opacity:1; 
stroke-linecap:round; stroke-linejoin:round;">
<text x="168.0000" y="92.0000"
textLength="7.7000" font-size="7.3333" lengthAdjust="spacingAndGlyphs"
text-anchor="start" opacity="0">.</text>
<g class="stroked-text"><desc>.</desc>
<path style="fill:#000000; fill-opacity:1.0000; stroke:none;fill-rule:evenodd;"
d="M 169.9250,90.1193
169.9250,88.1419
171.9360,88.1419
171.9360,90.1193
Z" /> 
</g></g>
<g style="fill:none; 
stroke:#000000; stroke-width:0.2000; stroke-opacity:1; 
stroke-linecap:round; stroke-linejoin:round;">
<text x="165.5000" y="103.0000"
textLength="9.8000" font-size="1.3333" lengthAdjust="spacingAndGlyphs"
text-anchor="start" opacity="0">IdeaLab</text>
<g class="stroked-text"><desc>IdeaLab</desc>
<path style="fill:#000000; fill-opacity:1.0000; stroke:none;fill-rule:evenodd;"
d="M 165.6749,102.6581
165.6749,102.4678
166.0249,102.4678
166.0249,101.6134
165.6749,101.6134
165.6749,101.4232
166.7405,101.4232
166.7405,101.6134
166.3905,101.6134
166.3905,102.4678
166.7405,102.4678
166.7405,102.6581
Z" /> 
<path style="fill:#000000; fill-opacity:1.0000; stroke:none;fill-rule:evenodd;"
d="M 168.1405,102.6581
167.0749,102.6581
167.0749,102.4834
166.9000,102.4834
166.9000,101.9573
167.2656,101.9573
167.2656,102.4678
167.7749,102.4678
167.7749,101.9573
167.2656,101.9573
166.9000,101.9573
166.9000,101.9546
167.0749,101.9546
167.0749,101.7671
167.7749,101.7671
167.7749,101.4232
168.1405,101.4232
Z" /> 
<path style="fill:#000000; fill-opacity:1.0000; stroke:none;fill-rule:evenodd;"
d="M 169.3656,101.9546
169.5405,101.9546
169.5405,102.3142
168.6656,102.3142
168.6656,102.4678
169.3656,102.4678
169.3656,102.6581
168.4749,102.6581
168.4749,102.4834
168.3000,102.4834
168.3000,101.9573
168.6656,101.9573
168.6656,102.1239
169.1749,102.1239
169.1749,101.9573
168.6656,101.9573
168.3000,101.9573
168.3000,101.9546
168.4749,101.9546
168.4749,101.7671
169.3656,101.7671
Z" /> 
<path style="fill:#000000; fill-opacity:1.0000; stroke:none;fill-rule:evenodd;"
d="M 170.7656,101.9419
170.9405,101.9419
170.9405,102.6581
169.8749,102.6581
169.8749,102.4834
169.7000,102.4834
169.7000,102.3115
170.0656,102.3115
170.0656,102.4678
170.5749,102.4678
170.5749,102.3115
170.0656,102.3115
169.7000,102.3115
169.7000,102.2958
169.8749,102.2958
169.8749,102.1239
170.5749,102.1239
170.5749,101.9573
169.8749,101.9573
169.8749,101.7671
170.7656,101.7671
Z" /> 
<path style="fill:#000000; fill-opacity:1.0000; stroke:none;fill-rule:evenodd;"
d="M 171.2749,102.6581
171.2749,101.4232
171.6405,101.4232
171.6405,102.4678
172.3405,102.4678
172.3405,102.6581
Z" /> 
<path style="fill:#000000; fill-opacity:1.0000; stroke:none;fill-rule:evenodd;"
d="M 173.5656,101.9419
173.7405,101.9419
173.7405,102.6581
172.6749,102.6581
172.6749,102.4834
172.5000,102.4834
172.5000,102.3115
172.8656,102.3115
172.8656,102.4678
173.3749,102.4678
173.3749,102.3115
172.8656,102.3115
172.5000,102.3115
172.5000,102.2958
172.6749,102.2958
172.6749,102.1239
173.3749,102.1239
173.3749,101.9573
172.6749,101.9573
172.6749,101.7671
173.5656,101.7671
Z" /> 
<path style="fill:#000000; fill-opacity:1.0000; stroke:none;fill-rule:evenodd;"
d="M 174.2656,101.7671
174.9656,101.7671
174.9656,101.9546
175.1405,101.9546
175.1405,102.4861
174.9656,102.4861
174.9656,102.6581
174.0749,102.6581
174.0749,102.4861
173.9000,102.4861
173.9000,101.9573
174.2656,101.9573
174.2656,102.4678
174.7749,102.4678
174.7749,101.9573
174.2656,101.9573
173.9000,101.9573
173.9000,101.4232
174.2656,101.4232
Z" /> 
</g></g>
<g style="fill:none; 
stroke:#000000; stroke-width:0.2000; stroke-opacity:1; 
stroke-linecap:round; stroke-linejoin:round;">
<g transform="rotate(-90.000000 147.0000 102.5000)">
<text x="147.0000" y="102.5000"
textLength="18.2000" font-size="1.3333" lengthAdjust="spacingAndGlyphs"
text-anchor="start" opacity="0">Emre Dayangaç</text>
</g>
<g class="stroked-text"><desc>Emre Dayangaç</desc>
<path style="fill:#000000; fill-opacity:1.0000; stroke:none;fill-rule:evenodd;"
d="M 146.6581,102.5000
145.4232,102.5000
145.4232,101.2595
145.6134,101.2595
145.6134,102.1344
145.9390,102.1344
145.9390,101.4344
146.1293,101.4344
146.1293,102.1344
146.4678,102.1344
146.4678,101.2595
146.6581,101.2595
Z" /> 
<path style="fill:#000000; fill-opacity:1.0000; stroke:none;fill-rule:evenodd;"
d="M 146.6581,101.1000
145.7671,101.1000
145.7671,100.0344
145.9390,100.0344
145.9390,99.8595
146.6581,99.8595
146.6581,100.2251
145.9573,100.2251
145.9573,100.3844
146.6581,100.3844
146.6581,100.7500
145.9573,100.7500
145.9573,100.9095
146.6581,100.9095
Z" /> 
<path style="fill:#000000; fill-opacity:1.0000; stroke:none;fill-rule:evenodd;"
d="M 145.9390,99.1595
145.9390,98.9844
146.1293,98.9844
146.1293,99.1595
146.6581,99.1595
146.6581,99.5251
145.7671,99.5251
145.7671,99.1595
Z" /> 
<path style="fill:#000000; fill-opacity:1.0000; stroke:none;fill-rule:evenodd;"
d="M 145.7671,98.4595
145.9573,98.4595
145.9573,99.0000
145.7671,99.0000
Z" /> 
<path style="fill:#000000; fill-opacity:1.0000; stroke:none;fill-rule:evenodd;"
d="M 146.3142,97.9344
146.4678,97.9344
146.4678,97.2344
146.6581,97.2344
146.6581,98.1251
146.4834,98.1251
146.4834,98.3000
145.9546,98.3000
145.9546,98.1251
145.7671,98.1251
145.7671,97.4251
145.9573,97.4251
145.9573,97.9344
146.1239,97.9344
146.1239,97.4251
145.9573,97.4251
145.7671,97.4251
145.7671,97.2344
145.9546,97.2344
145.9546,97.0595
146.3142,97.0595
Z" /> 
<path style="fill:#000000; fill-opacity:1.0000; stroke:none;fill-rule:evenodd;"
d="M 146.3142,94.4344
146.4834,94.4344
146.4834,94.6095
146.6581,94.6095
146.6581,95.5000
145.4232,95.5000
145.4232,95.1344
145.6134,95.1344
146.4678,95.1344
146.4678,94.8000
146.2985,94.8000
146.2985,94.6251
145.7827,94.6251
145.7827,94.8000
145.6134,94.8000
145.6134,95.1344
145.4232,95.1344
145.4232,94.6095
145.5951,94.6095
145.5951,94.4344
145.7671,94.4344
145.7671,94.2595
146.3142,94.2595
Z" /> 
<path style="fill:#000000; fill-opacity:1.0000; stroke:none;fill-rule:evenodd;"
d="M 146.6581,93.9251
146.4834,93.9251
146.4834,94.1000
146.2958,94.1000
146.2958,93.9251
146.1239,93.9251
146.1239,93.2251
146.3115,93.2251
146.3115,93.7344
146.4678,93.7344
146.4678,93.2251
146.3115,93.2251
146.1239,93.2251
145.9573,93.2251
145.9573,93.9251
145.7671,93.9251
145.7671,93.0344
145.9419,93.0344
145.9419,92.8595
146.6581,92.8595
Z" /> 
<path style="fill:#000000; fill-opacity:1.0000; stroke:none;fill-rule:evenodd;"
d="M 146.8300,92.5251
146.6397,92.5251
146.6397,91.8251
146.4861,91.8251
146.4861,92.5251
146.3142,92.5251
146.3142,92.7000
145.7671,92.7000
145.7671,92.3344
146.2958,92.3344
146.2958,91.8251
145.7671,91.8251
145.7671,91.4595
146.6581,91.4595
146.6581,91.6344
146.8300,91.6344
Z" /> 
<path style="fill:#000000; fill-opacity:1.0000; stroke:none;fill-rule:evenodd;"
d="M 146.6581,91.1251
146.4834,91.1251
146.4834,91.3000
146.2958,91.3000
146.2958,91.1251
146.1239,91.1251
146.1239,90.4251
146.3115,90.4251
146.3115,90.9344
146.4678,90.9344
146.4678,90.4251
146.3115,90.4251
146.1239,90.4251
145.9573,90.4251
145.9573,91.1251
145.7671,91.1251
145.7671,90.2344
145.9419,90.2344
145.9419,90.0595
146.6581,90.0595
Z" /> 
<path style="fill:#000000; fill-opacity:1.0000; stroke:none;fill-rule:evenodd;"
d="M 146.6581,89.9000
145.7671,89.9000
145.7671,88.8344
145.9390,88.8344
145.9390,88.6595
146.6581,88.6595
146.6581,89.0251
145.9573,89.0251
145.9573,89.5344
146.6581,89.5344
Z" /> 
<path style="fill:#000000; fill-opacity:1.0000; stroke:none;fill-rule:evenodd;"
d="M 146.6581,87.4344
146.8300,87.4344
146.8300,88.3251
146.6397,88.3251
146.6397,87.6251
146.4861,87.6251
146.4861,88.3251
146.2985,88.3251
146.2985,88.5000
145.9390,88.5000
145.9390,88.3251
145.7671,88.3251
145.7671,87.6251
145.9573,87.6251
145.9573,88.1344
146.2958,88.1344
146.2958,87.6251
145.9573,87.6251
145.7671,87.6251
145.7671,87.2595
146.6581,87.2595
Z" /> 
<path style="fill:#000000; fill-opacity:1.0000; stroke:none;fill-rule:evenodd;"
d="M 146.6581,86.9251
146.4834,86.9251
146.4834,87.1000
146.2958,87.1000
146.2958,86.9251
146.1239,86.9251
146.1239,86.2251
146.3115,86.2251
146.3115,86.7344
146.4678,86.7344
146.4678,86.2251
146.3115,86.2251
146.1239,86.2251
145.9573,86.2251
145.9573,86.9251
145.7671,86.9251
145.7671,86.0344
145.9419,86.0344
145.9419,85.8595
146.6581,85.8595
Z" /> 
<path style="fill:#000000; fill-opacity:1.0000; stroke:none;fill-rule:evenodd;"
d="M 145.7671,84.4595
145.9573,84.4595
145.9573,85.3344
146.2958,85.3344
146.2958,84.4595
146.4861,84.4595
146.4861,84.8095
146.6581,84.8095
146.6581,85.0000
146.4861,85.0000
146.4861,85.5251
146.2985,85.5251
146.2985,85.7000
145.9390,85.7000
145.9390,85.5251
145.7671,85.5251
Z" /> 
<path style="fill:#000000; fill-opacity:1.0000; stroke:none;fill-rule:evenodd;"
d="M 146.6397,85.3500
146.6397,84.9844
146.8300,84.9844
146.8300,85.3500
Z" /> 
</g><path style="fill:#000000; fill-opacity:1.0000; stroke:none;fill-rule:evenodd;"
d="M 152.0500,86.9450
152.0614,86.8876
152.0939,86.8389
152.1426,86.8064
152.2000,86.7950
153.8500,86.7950
153.9074,86.8064
153.9561,86.8389
153.9886,86.8876
154.0000,86.9450
154.0000,87.2450
153.9886,87.3024
153.9561,87.3511
153.9074,87.3836
153.8500,87.3950
152.2000,87.3950
152.1426,87.3836
152.0939,87.3511
152.0614,87.3024
152.0500,87.2450
Z" /> 
<path style="fill:#000000; fill-opacity:1.0000; stroke:none;fill-rule:evenodd;"
d="M 152.0500,88.2150
152.0614,88.1576
152.0939,88.1089
152.1426,88.0764
152.2000,88.0650
153.8500,88.0650
153.9074,88.0764
153.9561,88.1089
153.9886,88.1576
154.0000,88.2150
154.0000,88.5150
153.9886,88.5724
153.9561,88.6211
153.9074,88.6536
153.8500,88.6650
152.2000,88.6650
152.1426,88.6536
152.0939,88.6211
152.0614,88.5724
152.0500,88.5150
Z" /> 
<path style="fill:#000000; fill-opacity:1.0000; stroke:none;fill-rule:evenodd;"
d="M 152.0500,89.4850
152.0614,89.4276
152.0939,89.3789
152.1426,89.3464
152.2000,89.3350
153.8500,89.3350
153.9074,89.3464
153.9561,89.3789
153.9886,89.4276
154.0000,89.4850
154.0000,89.7850
153.9886,89.8424
153.9561,89.8911
153.9074,89.9236
153.8500,89.9350
152.2000,89.9350
152.1426,89.9236
152.0939,89.8911
152.0614,89.8424
152.0500,89.7850
Z" /> 
<path style="fill:#000000; fill-opacity:1.0000; stroke:none;fill-rule:evenodd;"
d="M 152.0500,90.7550
152.0614,90.6976
152.0939,90.6489
152.1426,90.6164
152.2000,90.6050
153.8500,90.6050
153.9074,90.6164
153.9561,90.6489
153.9886,90.6976
154.0000,90.7550
154.0000,91.0550
153.9886,91.1124
153.9561,91.1611
153.9074,91.1936
153.8500,91.2050
152.2000,91.2050
152.1426,91.1936
152.0939,91.1611
152.0614,91.1124
152.0500,91.0550
Z" /> 
<path style="fill:#000000; fill-opacity:1.0000; stroke:none;fill-rule:evenodd;"
d="M 157.0000,90.7550
157.0114,90.6976
157.0439,90.6489
157.0926,90.6164
157.1500,90.6050
158.8000,90.6050
158.8574,90.6164
158.9061,90.6489
158.9386,90.6976
158.9500,90.7550
158.9500,91.0550
158.9386,91.1124
158.9061,91.1611
158.8574,91.1936
158.8000,91.2050
157.1500,91.2050
157.0926,91.1936
157.0439,91.1611
157.0114,91.1124
157.0000,91.0550
Z" /> 
<path style="fill:#000000; fill-opacity:1.0000; stroke:none;fill-rule:evenodd;"
d="M 157.0000,89.4850
157.0114,89.4276
157.0439,89.3789
157.0926,89.3464
157.1500,89.3350
158.8000,89.3350
158.8574,89.3464
158.9061,89.3789
158.9386,89.4276
158.9500,89.4850
158.9500,89.7850
158.9386,89.8424
158.9061,89.8911
158.8574,89.9236
158.8000,89.9350
157.1500,89.9350
157.0926,89.9236
157.0439,89.8911
157.0114,89.8424
157.0000,89.7850
Z" /> 
<path style="fill:#000000; fill-opacity:1.0000; stroke:none;fill-rule:evenodd;"
d="M 157.0000,88.2150
157.0114,88.1576
157.0439,88.1089
157.0926,88.0764
157.1500,88.0650
158.8000,88.0650
158.8574,88.0764
158.9061,88.1089
158.9386,88.1576
158.9500,88.2150
158.9500,88.5150
158.9386,88.5724
158.9061,88.6211
158.8574,88.6536
158.8000,88.6650
157.1500,88.6650
157.0926,88.6536
157.0439,88.6211
157.0114,88.5724
157.0000,88.5150
Z" /> 
<path style="fill:#000000; fill-opacity:1.0000; stroke:none;fill-rule:evenodd;"
d="M 157.0000,86.9450
157.0114,86.8876
157.0439,86.8389
157.0926,86.8064
157.1500,86.7950
158.8000,86.7950
158.8574,86.8064
158.9061,86.8389
158.9386,86.8876
158.9500,86.9450
158.9500,87.2450
158.9386,87.3024
158.9061,87.3511
158.8574,87.3836
158.8000,87.3950
157.1500,87.3950
157.0926,87.3836
157.0439,87.3511
157.0114,87.3024
157.0000,87.2450
Z" /> 
<path style="fill:#000000; fill-opacity:1.0000; stroke:none;fill-rule:evenodd;"
d="M 169.1000,92.0900
169.1383,92.0976
169.1707,92.1193
169.1924,92.1517
169.2000,92.1900
169.2000,92.4500
169.1924,92.4883
169.1707,92.5207
169.1383,92.5424
169.1000,92.5500
168.9000,92.5500
168.8617,92.5424
168.8293,92.5207
168.8076,92.4883
168.8000,92.4500
168.8000,92.1900
168.8076,92.1517
168.8293,92.1193
168.8617,92.0976
168.9000,92.0900
Z" /> 
<path style="fill:#000000; fill-opacity:1.0000; stroke:none;fill-rule:evenodd;"
d="M 169.1000,91.4500
169.1383,91.4576
169.1707,91.4793
169.1924,91.5117
169.2000,91.5500
169.2000,91.8100
169.1924,91.8483
169.1707,91.8807
169.1383,91.9024
169.1000,91.9100
168.9000,91.9100
168.8617,91.9024
168.8293,91.8807
168.8076,91.8483
168.8000,91.8100
168.8000,91.5500
168.8076,91.5117
168.8293,91.4793
168.8617,91.4576
168.9000,91.4500
Z" /> 
<path style="fill:#000000; fill-opacity:1.0000; stroke:none;fill-rule:evenodd;"
d="M 151.8000,97.8000
151.8000,96.9000
153.3000,96.9000
153.3000,97.8000
Z" /> 
<path style="fill:#000000; fill-opacity:1.0000; stroke:none;fill-rule:evenodd;"
d="M 151.8000,101.1000
151.8000,100.2000
153.3000,100.2000
153.3000,101.1000
Z" /> 
<path style="fill:#000000; fill-opacity:1.0000; stroke:none;fill-rule:evenodd;"
d="M 156.7000,101.1000
156.7000,100.2000
158.2000,100.2000
158.2000,101.1000
Z" /> 
<path style="fill:#000000; fill-opacity:1.0000; stroke:none;fill-rule:evenodd;"
d="M 156.7000,97.8000
156.7000,96.9000
158.2000,96.9000
158.2000,97.8000
Z" /> 
<path style="fill:#000000; fill-opacity:1.0000; stroke:none;fill-rule:evenodd;"
d="M 172.8750,96.8000
172.8750,96.2000
174.6250,96.2000
174.6250,96.8000
Z" /> 
<path style="fill:#000000; fill-opacity:1.0000; stroke:none;fill-rule:evenodd;"
d="M 171.1250,97.8000
171.1250,97.2000
172.8750,97.2000
172.8750,97.8000
Z" /> 
<path style="fill:#000000; fill-opacity:1.0000; stroke:none;fill-rule:evenodd;"
d="M 172.8750,98.8000
172.8750,98.2000
174.6250,98.2000
174.6250,98.8000
Z" /> 
<path style="fill:#000000; fill-opacity:1.0000; stroke:none;fill-rule:evenodd;"
d="M 171.1250,99.8000
171.1250,99.2000
172.8750,99.2000
172.8750,99.8000
Z" /> 
<path style="fill:#000000; fill-opacity:1.0000; stroke:none;fill-rule:evenodd;"
d="M 157.6050,93.4000
157.6126,93.3617
157.6343,93.3293
157.6667,93.3076
157.7050,93.3000
157.9650,93.3000
158.0033,93.3076
158.0357,93.3293
158.0574,93.3617
158.0650,93.4000
158.0650,93.6000
158.0574,93.6383
158.0357,93.6707
158.0033,93.6924
157.9650,93.7000
157.7050,93.7000
157.6667,93.6924
157.6343,93.6707
157.6126,93.6383
157.6050,93.6000
Z" /> 
<path style="fill:#000000; fill-opacity:1.0000; stroke:none;fill-rule:evenodd;"
d="M 158.2450,93.4000
158.2526,93.3617
158.2743,93.3293
158.3067,93.3076
158.3450,93.3000
158.6050,93.3000
158.6433,93.3076
158.6757,93.3293
158.6974,93.3617
158.7050,93.4000
158.7050,93.6000
158.6974,93.6383
158.6757,93.6707
158.6433,93.6924
158.6050,93.7000
158.3450,93.7000
158.3067,93.6924
158.2743,93.6707
158.2526,93.6383
158.2450,93.6000
Z" /> 
<path style="fill:#000000; fill-opacity:1.0000; stroke:none;fill-rule:evenodd;"
d="M 149.6050,99.9000
149.6126,99.8617
149.6343,99.8293
149.6667,99.8076
149.7050,99.8000
149.9650,99.8000
150.0033,99.8076
150.0357,99.8293
150.0574,99.8617
150.0650,99.9000
150.0650,100.1000
150.0574,100.1383
150.0357,100.1707
150.0033,100.1924
149.9650,100.2000
149.7050,100.2000
149.6667,100.1924
149.6343,100.1707
149.6126,100.1383
149.6050,100.1000
Z" /> 
<path style="fill:#000000; fill-opacity:1.0000; stroke:none;fill-rule:evenodd;"
d="M 150.2450,99.9000
150.2526,99.8617
150.2743,99.8293
150.3067,99.8076
150.3450,99.8000
150.6050,99.8000
150.6433,99.8076
150.6757,99.8293
150.6974,99.8617
150.7050,99.9000
150.7050,100.1000
150.6974,100.1383
150.6757,100.1707
150.6433,100.1924
150.6050,100.2000
150.3450,100.2000
150.3067,100.1924
150.2743,100.1707
150.2526,100.1383
150.2450,100.1000
Z" /> 
<path style="fill:#000000; fill-opacity:1.0000; stroke:none;fill-rule:evenodd;"
d="M 168.9000,94.2050
168.8617,94.1974
168.8293,94.1757
168.8076,94.1433
168.8000,94.1050
168.8000,93.8450
168.8076,93.8067
168.8293,93.7743
168.8617,93.7526
168.9000,93.7450
169.1000,93.7450
169.1383,93.7526
169.1707,93.7743
169.1924,93.8067
169.2000,93.8450
169.2000,94.1050
169.1924,94.1433
169.1707,94.1757
169.1383,94.1974
169.1000,94.2050
Z" /> 
<path style="fill:#000000; fill-opacity:1.0000; stroke:none;fill-rule:evenodd;"
d="M 168.9000,93.5650
168.8617,93.5574
168.8293,93.5357
168.8076,93.5033
168.8000,93.4650
168.8000,93.2050
168.8076,93.1667
168.8293,93.1343
168.8617,93.1126
168.9000,93.1050
169.1000,93.1050
169.1383,93.1126
169.1707,93.1343
169.1924,93.1667
169.2000,93.2050
169.2000,93.4650
169.1924,93.5033
169.1707,93.5357
169.1383,93.5574
169.1000,93.5650
Z" /> 
<path style="fill:#000000; fill-opacity:1.0000; stroke:none;fill-rule:evenodd;"
d="M 162.3250,97.4000
162.3250,95.6000
164.1250,95.6000
164.1250,97.4000
Z" /> 
</g>
<g style="fill:#000000; fill-opacity:1.0000; stroke:none;">
<circle cx="165.7650" cy="96.5000" r="0.9000" /> 
</g> 
</svg>
